<svg width="1032" height="1032" viewBox="0 0 1032 1032" fill="none" xmlns="http://www.w3.org/2000/svg">
<g filter="url(#filter0_d_367_696)">
<path d="M4 169C4 75.6639 79.6639 0 173 0H859C952.336 0 1028 75.6639 1028 169V855C1028 948.336 952.336 1024 859 1024H173C79.6639 1024 4 948.336 4 855V169Z" fill="url(#paint0_linear_367_696)"/>
<path d="M380.828 387.828C399.444 387.828 414.535 402.92 414.535 421.536V455.241H448.243C466.859 455.241 481.95 470.333 481.95 488.949C481.95 507.565 466.859 522.656 448.243 522.656H414.535V556.364C414.535 574.98 399.444 590.071 380.828 590.071C362.212 590.071 347.12 574.98 347.12 556.364V522.656H313.415C294.799 522.656 279.707 507.565 279.707 488.949C279.707 470.333 294.799 455.241 313.415 455.241H347.12V421.536C347.12 402.92 362.212 387.828 380.828 387.828Z" fill="white"/>
<path d="M380.828 389.828C398.339 389.828 412.535 404.024 412.535 421.535V455.241C412.535 456.346 413.431 457.241 414.535 457.241H448.243C465.754 457.241 479.95 471.438 479.95 488.949C479.95 506.46 465.754 520.656 448.243 520.656H414.535C413.431 520.656 412.535 521.552 412.535 522.656V556.364C412.535 573.875 398.339 588.071 380.828 588.071C363.317 588.071 349.12 573.875 349.12 556.364V522.656C349.12 521.552 348.225 520.656 347.12 520.656H313.414C295.903 520.656 281.707 506.46 281.707 488.949C281.707 471.438 295.903 457.241 313.414 457.241H347.12C348.225 457.241 349.12 456.346 349.12 455.241V421.535C349.12 404.024 363.317 389.828 380.828 389.828Z" stroke="url(#paint1_linear_367_696)" stroke-opacity="0.6" stroke-width="4" stroke-linecap="round" stroke-linejoin="round"/>
<path d="M617.111 488.951C635.727 488.951 650.818 504.043 650.818 522.659C650.818 541.275 635.727 556.366 617.111 556.366H616.778C598.162 556.366 583.07 541.275 583.07 522.659C583.07 504.043 598.162 488.951 616.778 488.951H617.111Z" fill="white"/>
<path d="M616.777 490.951H617.111C634.622 490.951 648.817 505.147 648.817 522.658C648.817 540.17 634.623 554.366 617.111 554.366H616.777C599.266 554.366 585.07 540.169 585.07 522.658C585.071 505.147 599.266 490.951 616.777 490.951Z" stroke="url(#paint2_linear_367_696)" stroke-opacity="0.6" stroke-width="4" stroke-linecap="round" stroke-linejoin="round"/>
<path d="M718.234 421.535C736.85 421.535 751.941 436.627 751.941 455.243C751.941 473.859 736.85 488.95 718.234 488.95H717.901C699.285 488.95 684.193 473.859 684.193 455.243C684.193 436.627 699.285 421.535 717.901 421.535H718.234Z" fill="white"/>
<path d="M717.9 423.535H718.234C735.745 423.535 749.94 437.731 749.94 455.242C749.94 472.754 735.746 486.95 718.234 486.95H717.9C700.389 486.95 686.193 472.753 686.193 455.242C686.194 437.731 700.389 423.535 717.9 423.535Z" stroke="url(#paint3_linear_367_696)" stroke-opacity="0.6" stroke-width="4" stroke-linecap="round" stroke-linejoin="round"/>
<path d="M588.877 623.779C615.692 623.785 641.407 634.441 660.366 653.404L708.027 701.066C724.527 717.565 732.721 724.899 751.607 724.899C769.487 724.899 786.634 717.797 799.277 705.155C811.919 692.512 819.022 675.365 819.022 657.485C819.021 608.136 799.172 441.823 796.195 417.046C796.025 415.777 795.901 414.633 795.815 413.81C795.702 412.723 795.657 412.259 795.59 411.688C795.57 411.524 795.552 411.36 795.535 411.196C792.977 386.303 781.279 363.243 762.704 346.474C744.419 329.968 720.748 320.713 696.143 320.422L694.97 320.415H336.343L335.171 320.422C310.571 320.713 286.903 329.964 268.619 346.465C250.044 363.228 238.343 386.282 235.778 411.171C235.764 411.307 235.749 411.444 235.734 411.58C235.726 411.643 235.395 414.891 235.133 416.932C232.204 441.308 212.294 608.094 212.294 657.485C212.294 675.365 219.396 692.512 232.039 705.155C244.681 717.797 261.829 724.899 279.708 724.899C298.594 724.899 306.788 717.565 323.287 701.066L370.945 653.407C389.905 634.442 415.622 623.785 442.439 623.779H588.877ZM886.436 657.485C886.436 693.244 872.23 727.539 846.945 752.824C821.66 778.109 787.366 792.314 751.607 792.314C703.08 792.314 677.566 765.942 660.359 748.734L612.693 701.069C606.571 694.945 598.334 691.419 589.699 691.203L588.862 691.193H442.453L441.616 691.203C432.98 691.419 424.744 694.945 418.621 701.069L370.957 748.734C353.749 765.942 328.235 792.314 279.708 792.314C243.949 792.314 209.655 778.109 184.37 752.824C159.084 727.539 144.879 693.244 144.879 657.485C144.879 602.837 165.648 430.133 168.209 408.818L168.282 408.256C168.485 406.776 168.368 407.289 168.764 403.853C173.124 362.528 192.596 324.264 223.452 296.418C254.41 268.479 294.627 253.01 336.328 253H694.988C736.695 253.011 776.917 268.486 807.876 296.433C838.767 324.319 858.245 362.647 862.567 404.031C862.868 406.607 862.856 406.804 862.917 407.359L863.105 408.818C865.667 430.132 886.436 602.803 886.436 657.485Z" fill="white"/>
<path d="M694.987 255L696.918 255.012C737.439 255.492 776.423 270.734 806.536 297.918C837.061 325.473 856.308 363.346 860.578 404.239C860.579 404.247 860.579 404.256 860.58 404.264C860.887 406.892 860.852 406.879 860.929 407.576C860.93 407.589 860.932 407.602 860.934 407.614L861.121 409.073C863.701 430.545 884.435 602.972 884.436 657.485C884.436 692.714 870.44 726.499 845.53 751.409C820.62 776.319 786.835 790.314 751.607 790.314C703.958 790.314 678.958 764.505 661.773 747.32L614.107 699.655C607.622 693.168 598.897 689.433 589.749 689.204C589.741 689.204 589.732 689.203 589.724 689.203L588.887 689.193H442.428L441.591 689.203L441.565 689.204C432.418 689.433 423.693 693.168 417.207 699.655L369.542 747.32C352.357 764.505 327.357 790.314 279.708 790.314C244.48 790.314 210.694 776.319 185.784 751.409C160.874 726.499 146.879 692.714 146.879 657.485L146.894 654.846C147.522 597.653 167.653 430.215 170.193 409.074L170.264 408.527C170.463 407.076 170.377 407.32 170.751 404.082C170.752 404.076 170.752 404.069 170.753 404.062C175.061 363.228 194.302 325.419 224.792 297.902C254.905 270.727 293.882 255.49 334.397 255.012L336.328 255H694.987ZM335.159 318.422H335.147C310.06 318.718 285.924 328.152 267.278 344.979C248.336 362.074 236.404 385.585 233.789 410.966C233.776 411.094 233.762 411.223 233.747 411.351C233.732 411.481 233.41 414.644 233.149 416.678C233.149 416.683 233.148 416.688 233.147 416.693C230.228 440.986 210.294 607.939 210.294 657.485C210.294 675.895 217.607 693.551 230.625 706.568C243.643 719.586 261.298 726.899 279.708 726.899C289.458 726.899 296.597 724.993 303.425 720.883C310.143 716.838 316.488 710.694 324.702 702.48V702.479L372.359 654.821C390.654 636.522 415.367 626.113 441.208 625.787L442.439 625.778H588.876C615.161 625.784 640.367 636.23 658.951 654.817L706.613 702.479V702.48C714.827 710.694 721.172 716.839 727.891 720.884C734.719 724.994 741.857 726.899 751.607 726.899C770.017 726.899 787.673 719.586 800.69 706.568C813.708 693.551 821.021 675.895 821.021 657.485C821.021 607.982 801.148 441.501 798.181 416.808L798.178 416.78L798.062 415.875C797.953 414.998 797.869 414.214 797.805 413.602C797.693 412.531 797.645 412.042 797.576 411.454C797.558 411.3 797.54 411.146 797.524 410.992C794.915 385.607 782.987 362.089 764.044 344.989C745.397 328.157 721.258 318.719 696.167 318.422H696.155L694.982 318.415H336.331L335.159 318.422Z" stroke="url(#paint4_linear_367_696)" stroke-opacity="0.6" stroke-width="4" stroke-linecap="round" stroke-linejoin="round"/>
</g>
<defs>
<filter id="filter0_d_367_696" x="0" y="0" width="1032" height="1032" filterUnits="userSpaceOnUse" color-interpolation-filters="sRGB">
<feFlood flood-opacity="0" result="BackgroundImageFix"/>
<feColorMatrix in="SourceAlpha" type="matrix" values="0 0 0 0 0 0 0 0 0 0 0 0 0 0 0 0 0 0 127 0" result="hardAlpha"/>
<feOffset dy="4"/>
<feGaussianBlur stdDeviation="2"/>
<feComposite in2="hardAlpha" operator="out"/>
<feColorMatrix type="matrix" values="0 0 0 0 0 0 0 0 0 0 0 0 0 0 0 0 0 0 0.25 0"/>
<feBlend mode="normal" in2="BackgroundImageFix" result="effect1_dropShadow_367_696"/>
<feBlend mode="normal" in="SourceGraphic" in2="effect1_dropShadow_367_696" result="shape"/>
</filter>
<linearGradient id="paint0_linear_367_696" x1="516" y1="0" x2="516" y2="1024" gradientUnits="userSpaceOnUse">
<stop stop-color="#FF0034"/>
<stop offset="1" stop-color="#E62937"/>
</linearGradient>
<linearGradient id="paint1_linear_367_696" x1="380.829" y1="387.828" x2="380.829" y2="590.071" gradientUnits="userSpaceOnUse">
<stop stop-color="white"/>
<stop offset="1" stop-color="#999999"/>
</linearGradient>
<linearGradient id="paint2_linear_367_696" x1="616.944" y1="488.951" x2="616.944" y2="556.366" gradientUnits="userSpaceOnUse">
<stop stop-color="white"/>
<stop offset="1" stop-color="#999999"/>
</linearGradient>
<linearGradient id="paint3_linear_367_696" x1="718.067" y1="421.535" x2="718.067" y2="488.95" gradientUnits="userSpaceOnUse">
<stop stop-color="white"/>
<stop offset="1" stop-color="#999999"/>
</linearGradient>
<linearGradient id="paint4_linear_367_696" x1="515.657" y1="253" x2="515.657" y2="792.314" gradientUnits="userSpaceOnUse">
<stop stop-color="white"/>
<stop offset="1" stop-color="#999999"/>
</linearGradient>
</defs>
</svg>
